Coordinates
version=1
nRows=14
nColumns=32
inDegrees=yes

Units are S.I. units (second, meters, Newtons, ...)
If the header above contains a line with 'inDegrees', this indicates whether rotational values are in degrees (yes) or radians (no).

endheader
time	pelvis_tilt	pelvis_list	pelvis_rotation	pelvis_tx	pelvis_ty	pelvis_tz	hip_flexion_r	hip_adduction_r	hip_rotation_r	knee_angle_r	ankle_angle_r	subtalar_angle_r	mtp_angle_r	hip_flexion_l	hip_adduction_l	hip_rotation_l	knee_angle_l	ankle_angle_l	subtalar_angle_l	mtp_angle_l	lumbar_extension	lumbar_bending	lumbar_rotation	arm_flex_r	arm_add_r	arm_rot_r	elbow_flex_r	arm_flex_l	arm_add_l	arm_rot_l	elbow_flex_l
      5.85000000	     -5.15651772	      3.97500929	     89.70926296	     -0.00991983	      1.00545409	      0.63869219	     20.84390448	     -4.61967523	     -5.92647746	    -22.56288776	      2.54103202	     -7.56760799	      0.00000000	      2.19872030	      8.00946860	     -6.74562232	    -13.59779220	      5.79938497	     -7.36771485	      0.00000000	    -13.51050422	     -6.76667099	      3.11737281	      0.00000000	      0.00000000	      0.00000000	      0.00000000	      0.00000000	      0.00000000	      0.00000000	      0.00000000
      5.86000000	     -5.44423058	      3.72209424	     89.75657970	     -0.00934638	      1.00487880	      0.63242908	     21.14337400	     -4.74454793	     -6.01375311	    -20.83136923	      2.40898445	     -7.40419421	      0.00000000	      1.96214813	      8.29712223	     -6.71428315	    -13.39707724	      5.90311080	     -7.29847936	      0.00000000	    -13.32531827	     -7.09757551	      3.18369938	      0.00000000	      0.00000000	      0.00000000	      0.00000000	      0.00000000	      0.00000000	      0.00000000	      0.00000000
      5.87000000	     -5.64580348	      3.48508045	     89.78040647	     -0.00870535	      1.00433382	      0.62595528	     21.39105980	     -4.78557938	     -6.17971380	    -19.28678717	      2.17697364	     -7.17537658	      0.00000000	      1.67667757	      8.48971094	     -6.66977814	    -13.15868160	      6.05567375	     -7.23283555	      0.00000000	    -13.13821051	     -7.31924324	      3.16923868	      0.00000000	      0.00000000	      0.00000000	      0.00000000	      0.00000000	      0.00000000	      0.00000000	      0.00000000
      5.88000000	     -5.66838973	      3.33334782	     89.83132068	     -0.00835887	      1.00395595	      0.61932310	     21.51586289	     -4.70188217	     -6.52525232	    -17.97565206	      1.60581854	     -6.66273095	      0.00000000	      1.24794757	      8.51630897	     -6.39024511	    -12.85629426	      6.31384743	     -7.03576303	      0.00000000	    -13.01929480	     -7.26643084	      3.06138500	      0.00000000	      0.00000000	      0.00000000	      0.00000000	      0.00000000	      0.00000000	      0.00000000	      0.00000000
      5.89000000	     -5.74565589	      3.27327961	     89.93386734	     -0.00796804	      1.00356210	      0.61269746	     21.55887295	     -4.68840253	     -6.89877896	    -16.94899487	      1.20806493	     -6.19229718	      0.00000000	      0.79428596	      8.58680007	     -6.21701095	    -12.70119623	      6.66816725	     -6.95262502	      0.00000000	    -13.02330947	     -7.27982763	      2.98270105	      0.00000000	      0.00000000	      0.00000000	      0.00000000	      0.00000000	      0.00000000	      0.00000000	      0.00000000
      5.90000000	     -5.81423724	      3.23467427	     89.99621930	     -0.00746120	      1.00285511	      0.60649665	     21.89848565	     -4.62374842	     -6.90295574	    -16.75795246	      1.20001192	     -6.17893338	      0.00000000	      0.48505253	      8.60581250	     -6.22534207	    -12.84223678	      6.67549856	     -6.95660144	      0.00000000	    -13.08595700	     -7.26836129	      2.98214335	      0.00000000	      0.00000000	      0.00000000	      0.00000000	      0.00000000	      0.00000000	      0.00000000	      0.00000000
      5.91000000	     -6.06881077	      3.03409102	     90.00000018	     -0.00667634	      1.00210305	      0.59924240	     21.89669919	     -4.72252705	     -7.01116223	    -15.75582924	      0.86633361	     -5.81337038	      0.00000000	      0.12323028	      8.86906800	     -6.14784651	    -12.61241255	      7.06581557	     -6.98521535	      0.00000000	    -12.83520083	     -7.54383692	      3.04732086	      0.00000000	      0.00000000	      0.00000000	      0.00000000	      0.00000000	      0.00000000	      0.00000000	      0.00000000
      5.92000000	     -6.17076726	      2.97550060	     89.99686846	     -0.00623602	      1.00141407	      0.59229538	     22.02091023	     -4.70147668	     -6.88965247	    -15.58115110	      0.55655537	     -5.28047099	      0.00000000	     -0.36540294	      8.98352859	     -5.91155346	    -12.42175439	      7.51242933	     -6.95798818	      0.00000000	    -12.78452172	     -7.54634339	      3.05161427	      0.00000000	      0.00000000	      0.00000000	      0.00000000	      0.00000000	      0.00000000	      0.00000000	      0.00000000
      5.93000000	     -6.26514507	      2.98371467	     89.99627803	     -0.00561133	      1.00071428	      0.58529819	     22.11281427	     -4.67208202	     -6.70135638	    -15.74128897	      0.54064999	     -4.77509067	      0.00000000	     -0.83059951	      9.06228471	     -5.81404530	    -12.42623981	      7.91390494	     -6.95949854	      0.00000000	    -12.81840470	     -7.55116214	      3.08984407	      0.00000000	      0.00000000	      0.00000000	      0.00000000	      0.00000000	      0.00000000	      0.00000000	      0.00000000
      5.94000000	     -6.34318362	      2.90637962	     90.00000018	     -0.00498579	      0.99990569	      0.57781873	     22.13083081	     -4.62081565	     -6.64856690	    -15.83153950	      0.53327909	     -4.71357593	      0.00000000	     -1.15313317	      9.10230819	     -5.81396196	    -12.60062118	      7.95633507	     -6.96431009	      0.00000000	    -12.67008661	     -7.54277920	      3.08511407	      0.00000000	      0.00000000	      0.00000000	      0.00000000	      0.00000000	      0.00000000	      0.00000000	      0.00000000
      5.95000000	     -6.61293462	      2.99141530	     90.00000018	     -0.00407281	      0.99907797	      0.57046486	     22.09844302	     -4.75797966	     -6.00491054	    -16.40683305	      0.88707474	     -3.56685547	      0.00000000	     -1.75924633	      9.35795429	     -5.66246040	    -12.53218457	      8.82985443	     -6.88782802	      0.00000000	    -12.75568807	     -7.79153092	      3.11495273	      0.00000000	      0.00000000	      0.00000000	      0.00000000	      0.00000000	      0.00000000	      0.00000000	      0.00000000
      5.96000000	     -6.65762368	      2.95600305	     90.00000018	     -0.00350865	      0.99809075	      0.56272762	     22.11824088	     -4.70249526	     -5.67572191	    -17.06405179	      0.99162292	     -3.23659904	      0.00000000	     -2.19532457	      9.37136221	     -5.69111750	    -12.57188901	      9.00228204	     -6.85461908	      0.00000000	    -12.64895481	     -7.68568089	      3.07634072	      0.00000000	      0.00000000	      0.00000000	      0.00000000	      0.00000000	      0.00000000	      0.00000000	      0.00000000
      5.97000000	     -6.93300682	      3.05009320	     90.00000018	     -0.00278617	      0.99696518	      0.55477375	     21.94692645	     -4.92801174	     -5.54165821	    -17.78101627	      2.45612672	     -1.30943235	      0.00000000	     -2.75550575	      9.62624584	     -5.60615064	    -12.70286973	      9.84414060	     -6.38703967	      0.00000000	    -12.66899362	     -7.90713963	      3.00561323	      0.00000000	      0.00000000	      0.00000000	      0.00000000	      0.00000000	      0.00000000	      0.00000000	      0.00000000
      5.98000000	     -7.00535835	      2.98144693	     90.00000018	     -0.00222633	      0.99565658	      0.54677511	     21.80237570	     -4.88231476	     -5.03187511	    -18.32111280	      2.45184298	     -1.15074299	      0.00000000	     -3.09589243	      9.66929035	     -5.59145178	    -12.89060098	     10.06928914	     -6.43510328	      0.00000000	    -12.49297835	     -7.80360175	      2.97685428	      0.00000000	      0.00000000	      0.00000000	      0.00000000	      0.00000000	      0.00000000	      0.00000000	      0.00000000
